<svg width="24" height="24" viewBox="0 0 24 24" fill="none" xmlns="http://www.w3.org/2000/svg">
<path d="M14.5 3.25H9.5C9.03976 3.25 8.66667 3.6231 8.66667 4.08333C8.66667 4.54357 9.03976 4.91667 9.5 4.91667H14.5C14.9602 4.91667 15.3333 4.54357 15.3333 4.08333C15.3333 3.6231 14.9602 3.25 14.5 3.25Z" fill="#A4B1CD"/>
<path d="M14.5 17.4167H9.5C9.03976 17.4167 8.66667 17.7898 8.66667 18.25C8.66667 18.7102 9.03976 19.0833 9.5 19.0833H14.5C14.9602 19.0833 15.3333 18.7102 15.3333 18.25C15.3333 17.7898 14.9602 17.4167 14.5 17.4167Z" fill="#A4B1CD"/>
<path d="M19.0833 15.3333C19.5436 15.3333 19.9167 14.9602 19.9167 14.5V9.50001C19.9167 9.03977 19.5436 8.66667 19.0833 8.66667C18.6231 8.66667 18.25 9.03977 18.25 9.50001V14.5C18.25 14.9602 18.6231 15.3333 19.0833 15.3333Z" fill="#A4B1CD"/>
<path d="M5.75 14.5V9.50001C5.75 9.03977 5.3769 8.66667 4.91667 8.66667C4.45643 8.66667 4.08333 9.03977 4.08333 9.50001V14.5C4.08333 14.9602 4.45643 15.3333 4.91667 15.3333C5.3769 15.3333 5.75 14.9602 5.75 14.5Z" fill="#A4B1CD"/>
<path fill-rule="evenodd" clip-rule="evenodd" d="M2.83333 16.1667H7C7.46024 16.1667 7.83333 16.5398 7.83333 17V21.1667C7.83333 21.6269 7.46024 22 7 22H2.83333C2.3731 22 2 21.6269 2 21.1667V17C2 16.5398 2.3731 16.1667 2.83333 16.1667ZM5.95833 20.3333C6.07339 20.3333 6.16667 20.2401 6.16667 20.125V18.0417C6.16667 17.9266 6.07339 17.8333 5.95833 17.8333H3.875C3.75994 17.8333 3.66667 17.9266 3.66667 18.0417V20.125C3.66667 20.2401 3.75994 20.3333 3.875 20.3333H5.95833Z" fill="#A4B1CD"/>
<path fill-rule="evenodd" clip-rule="evenodd" d="M2.83333 2H7C7.46024 2 7.83333 2.3731 7.83333 2.83333V7C7.83333 7.46024 7.46024 7.83333 7 7.83333H2.83333C2.3731 7.83333 2 7.46024 2 7V2.83333C2 2.3731 2.3731 2 2.83333 2ZM5.95833 6.16667C6.07339 6.16667 6.16667 6.07339 6.16667 5.95833V3.875C6.16667 3.75994 6.07339 3.66667 5.95833 3.66667H3.875C3.75994 3.66667 3.66667 3.75994 3.66667 3.875V5.95833C3.66667 6.07339 3.75994 6.16667 3.875 6.16667H5.95833Z" fill="#A4B1CD"/>
<path fill-rule="evenodd" clip-rule="evenodd" d="M17 2H21.1667C21.6269 2 22 2.3731 22 2.83333V7C22 7.46024 21.6269 7.83333 21.1667 7.83333H17C16.5398 7.83333 16.1667 7.46024 16.1667 7V2.83333C16.1667 2.3731 16.5398 2 17 2ZM20.125 6.16667C20.2401 6.16667 20.3333 6.07339 20.3333 5.95833V3.875C20.3333 3.75994 20.2401 3.66667 20.125 3.66667H18.0417C17.9266 3.66667 17.8333 3.75994 17.8333 3.875V5.95833C17.8333 6.07339 17.9266 6.16667 18.0417 6.16667H20.125Z" fill="#A4B1CD"/>
<path fill-rule="evenodd" clip-rule="evenodd" d="M17 16.1667H21.1667C21.6269 16.1667 22 16.5398 22 17V21.1667C22 21.6269 21.6269 22 21.1667 22H17C16.5398 22 16.1667 21.6269 16.1667 21.1667V17C16.1667 16.5398 16.5398 16.1667 17 16.1667ZM20.125 20.3333C20.2401 20.3333 20.3333 20.2401 20.3333 20.125V18.0417C20.3333 17.9266 20.2401 17.8333 20.125 17.8333H18.0417C17.9266 17.8333 17.8333 17.9266 17.8333 18.0417V20.125C17.8333 20.2401 17.9266 20.3333 18.0417 20.3333H20.125Z" fill="#A4B1CD"/>
</svg>
