<svg width="24" height="24" viewBox="0 0 24 24" fill="none" xmlns="http://www.w3.org/2000/svg">
<path d="M5.84 15.7325C6.07489 15.7797 6.31777 15.7159 6.50312 15.5584C6.68848 15.4009 6.79722 15.1658 6.8 14.9167V14.9167C6.80394 14.5199 6.53429 14.1772 6.16 14.1033C5.69324 14.0354 5.25724 13.8215 4.9096 13.49C4.54797 13.0889 4.36328 12.5489 4.4 12C4.4 10.8099 5.32549 9.84471 6.468 9.84333C6.61209 9.84364 6.75576 9.85928 6.8968 9.89C7.13016 9.93965 7.37262 9.8784 7.55823 9.72292C7.74383 9.56745 7.85328 9.33391 7.8568 9.08583C7.9216 4.29083 14.4968 2.95 16.5112 7.38167C16.6442 7.68614 16.9425 7.87488 17.2632 7.8575C18.1647 7.81155 19.0369 8.19738 19.6312 8.905C20.1775 9.55424 20.4505 10.4049 20.3888 11.2658C20.3105 12.7148 19.2554 13.9018 17.8744 14.0942C17.4878 14.1617 17.2035 14.5084 17.2 14.9167V14.9167C17.1985 15.158 17.2968 15.3884 17.4699 15.5489C17.643 15.7094 17.874 15.7845 18.104 15.755C21.5408 15.25 22 11.8333 22 11C21.9972 9.69038 21.4855 8.43774 20.5816 7.5275C19.8344 6.7723 18.8615 6.3062 17.8248 6.20667C17.7615 6.20052 17.7048 6.1634 17.672 6.10667C16.3775 3.85433 13.8945 2.65299 11.4073 3.07562C8.92003 3.49825 6.93226 5.45924 6.392 8.02333C6.37402 8.11492 6.29989 8.18296 6.2104 8.19C5.00463 8.282 3.91732 8.97965 3.296 10.06C2.94606 10.676 2.77387 11.3839 2.8 12.0992C2.78305 13.0611 3.13925 13.9894 3.788 14.6742C4.35462 15.2333 5.06958 15.6021 5.84 15.7325V15.7325Z" fill="#A4B1CD"/>
<path d="M15.8328 14.705C16.0096 14.4885 16.0495 14.1848 15.9351 13.9268C15.8207 13.6687 15.5728 13.5035 15.3 13.5033H13.8C13.6895 13.5033 13.6 13.4101 13.6 13.295V8.91666C13.6 8.7398 13.4929 8.58218 13.3327 8.5235C13.1725 8.46482 12.9943 8.51787 12.888 8.65583L8.168 14.7983C7.992 15.0149 7.95241 15.318 8.06648 15.5757C8.18055 15.8334 8.42762 15.9988 8.7 16H10.2C10.3105 16 10.4 16.0933 10.4 16.2083V20.5833C10.4003 20.76 10.5076 20.9173 10.6677 20.9758C10.8278 21.0343 11.0058 20.9812 11.112 20.8433L13.8744 17.25L15.8328 14.705Z" fill="#A4B1CD"/>
</svg>
