<svg width="20" height="20" viewBox="0 0 20 20" fill="none" xmlns="http://www.w3.org/2000/svg">
<path fill-rule="evenodd" clip-rule="evenodd" d="M2.51257 17.5492C2.51395 18.9022 3.61042 19.9986 4.96341 20H15.8459C16.7525 19.9991 17.4871 19.2641 17.4876 18.3575V4.9275C17.4871 4.02089 16.7525 3.28592 15.8459 3.285H4.96341C4.53019 3.28454 4.17924 2.93322 4.17924 2.5C4.17924 2.03976 4.55234 1.66667 5.01257 1.66667H16.2376C16.6978 1.66667 17.0709 1.29357 17.0709 0.833333C17.0709 0.373096 16.6978 0 16.2376 0H5.01257C3.63186 0 2.51257 1.11929 2.51257 2.5V17.5492ZM10.4292 12.2158H13.7626C14.1078 12.2158 14.3876 12.4956 14.3876 12.8408C14.3876 13.186 14.1078 13.4658 13.7626 13.4658H10.4292C10.0841 13.4658 9.80424 13.186 9.80424 12.8408C9.80424 12.4956 10.0841 12.2158 10.4292 12.2158ZM6.24477 8.23966C6.00357 8.48063 6 8.87045 6.23675 9.11579L7.73091 10.6133C7.7701 10.6524 7.79212 10.7054 7.79212 10.7608C7.79212 10.8161 7.7701 10.8692 7.73091 10.9083L6.23675 12.3991C6.07435 12.5561 6.0093 12.7885 6.0666 13.007C6.1239 13.2255 6.29463 13.3961 6.51318 13.4532C6.73172 13.5103 6.96407 13.445 7.12091 13.2825L9.20425 11.1991C9.32149 11.082 9.38738 10.9232 9.38738 10.7575C9.38738 10.5918 9.32149 10.4329 9.20425 10.3158L7.12091 8.23246C6.87579 7.99548 6.48597 7.99869 6.24477 8.23966Z" fill="#A4B1CD"/>
</svg>
