<svg width="20" height="20" viewBox="0 0 20 20" fill="none" xmlns="http://www.w3.org/2000/svg">
<path fill-rule="evenodd" clip-rule="evenodd" d="M17.986 10.0967C17.986 9.03461 17.0922 8.17362 15.9895 8.17362H15.5902C15.4799 8.17362 15.3906 8.08752 15.3906 7.98131V5.86516C15.3906 2.99753 12.9771 0.672852 9.99994 0.672852C7.02278 0.672852 4.60931 2.99753 4.60931 5.86516C4.60931 6.3962 5.05625 6.8267 5.60757 6.8267C6.1589 6.8267 6.60584 6.3962 6.60584 5.86516C6.60584 4.05961 8.12543 2.59593 9.99994 2.59593C11.8744 2.59593 13.394 4.05961 13.394 5.86516V7.98131C13.394 8.08752 13.3046 8.17362 13.1944 8.17362H4.01035C2.9077 8.17362 2.01382 9.03461 2.01382 10.0967V11.2505C2.01382 12.3126 2.9077 13.1736 4.01035 13.1736H15.9895C17.0922 13.1736 17.986 12.3126 17.986 11.2505V10.0967ZM4.80902 11.2505C4.36796 11.2505 4.01041 10.9061 4.01041 10.4813C4.01041 10.0565 4.36796 9.71207 4.80902 9.71207C5.25008 9.71207 5.60763 10.0565 5.60763 10.4813C5.60719 10.9058 5.24977 11.2498 4.80902 11.2498V11.2505ZM7.20474 10.4813C7.20474 10.9061 7.56229 11.2505 8.00335 11.2505V11.2498C8.4441 11.2498 8.80152 10.9058 8.80196 10.4813C8.80196 10.0565 8.44441 9.71207 8.00335 9.71207C7.56229 9.71207 7.20474 10.0565 7.20474 10.4813Z" fill="#A4B1CD"/>
<path fill-rule="evenodd" clip-rule="evenodd" d="M15.9895 14.3267H4.01035C2.9077 14.3267 2.01382 15.1877 2.01382 16.2497V17.4036C2.01382 18.4657 2.9077 19.3267 4.01035 19.3267H15.9895C17.0922 19.3267 17.986 18.4657 17.986 17.4036V16.2497C17.986 15.1877 17.0922 14.3267 15.9895 14.3267ZM4.80902 17.4036C4.36796 17.4036 4.01041 17.0592 4.01041 16.6343C4.01041 16.2095 4.36796 15.8651 4.80902 15.8651C5.25008 15.8651 5.60763 16.2095 5.60763 16.6343C5.60763 17.0592 5.25008 17.4036 4.80902 17.4036ZM7.20474 16.6343C7.20474 17.0592 7.56229 17.4036 8.00335 17.4036C8.44441 17.4036 8.80196 17.0592 8.80196 16.6343C8.80196 16.2095 8.44441 15.8651 8.00335 15.8651C7.56229 15.8651 7.20474 16.2095 7.20474 16.6343Z" fill="#A4B1CD"/>
</svg>