<svg width="20" height="20" viewBox="0 0 20 20" fill="none" xmlns="http://www.w3.org/2000/svg">
<path d="M9.52079 17.9899C9.46939 17.9414 9.39678 17.9226 9.32829 17.9399C8.80584 18.0742 8.26856 18.1423 7.72912 18.1424C7.38717 18.1424 7.10995 18.4196 7.10995 18.7616C7.10995 19.1035 7.38717 19.3807 7.72912 19.3807C8.58003 19.3844 9.42539 19.2435 10.2291 18.9641C10.3027 18.9382 10.3553 18.8731 10.3654 18.7958C10.3754 18.7185 10.3411 18.6421 10.2766 18.5982C10.0088 18.4161 9.75602 18.2126 9.52079 17.9899Z" fill="#A4B1CD"/>
<path d="M14.1283 7.84681V7.89931C14.1284 7.99011 14.1958 8.06677 14.2858 8.07848C14.5623 8.11541 14.8355 8.17307 15.1033 8.25098C15.1656 8.26911 15.2328 8.25679 15.2846 8.21776C15.3365 8.17872 15.3669 8.11753 15.3666 8.05265V7.84681C15.372 6.1569 14.8111 4.5139 13.7733 3.18015C13.6737 3.04981 13.5264 2.96444 13.3638 2.94287C13.2012 2.92129 13.0368 2.96529 12.9066 3.06515C12.7759 3.16473 12.6908 3.31278 12.6706 3.47587C12.6504 3.63895 12.6967 3.80331 12.7991 3.93181C13.6641 5.05331 14.1317 6.43053 14.1283 7.84681Z" fill="#A4B1CD"/>
<path d="M5.24079 17.6409C2.86948 16.6413 1.32927 14.3167 1.33329 11.7434V10.1842C1.32106 9.85084 1.04728 9.58691 0.713705 9.58691C0.380133 9.58691 0.106349 9.85084 0.0941218 10.1842V11.7434C0.0904075 14.8149 1.92988 17.5889 4.76079 18.7809C4.83607 18.8146 4.91748 18.8324 4.99996 18.8334C5.29417 18.8329 5.54744 18.6255 5.60584 18.3371C5.66424 18.0487 5.51164 17.7591 5.24079 17.6442V17.6409Z" fill="#A4B1CD"/>
<path d="M0.688319 8.07333H0.722486C1.0506 8.07344 1.32183 7.81757 1.34082 7.49C1.51102 4.0579 4.29415 1.33503 7.72915 1.24C8.87031 1.31255 9.97328 1.67915 10.9308 2.30417C11.0727 2.38687 11.2417 2.40963 11.4005 2.3674C11.5592 2.32518 11.6946 2.22145 11.7767 2.07917C11.9464 1.71734 11.8545 1.28671 11.5517 1.02583C10.3898 0.353811 9.07134 -2.47221e-05 7.72915 0C3.63573 0.0947863 0.30913 3.33233 0.103319 7.42167C0.0944611 7.58566 0.151122 7.74646 0.260835 7.86868C0.370547 7.99089 0.524321 8.06451 0.688319 8.07333Z" fill="#A4B1CD"/>
<path d="M11.8716 8.17338C11.9218 8.21268 11.9874 8.22653 12.0491 8.21088C12.3256 8.14084 12.6069 8.09209 12.8908 8.06504C12.9698 8.05693 13.03 7.99034 13.03 7.91088V7.84671C13.0308 6.14719 12.2164 4.55039 10.8402 3.55315C9.46406 2.5559 7.69307 2.27923 6.0783 2.80921C5.92075 2.8595 5.79 2.97096 5.71542 3.11856C5.64083 3.26617 5.62866 3.43754 5.68163 3.59421C5.79024 3.9146 6.13432 4.09015 6.45747 3.99004C6.86706 3.85151 7.29675 3.78167 7.72913 3.78338C9.97121 3.78796 11.7875 5.60463 11.7916 7.84671V8.01338C11.7924 8.07615 11.8219 8.1351 11.8716 8.17338Z" fill="#A4B1CD"/>
<path d="M4.69915 5.13728C4.81067 5.01626 4.86911 4.85564 4.86144 4.69125C4.85377 4.52687 4.78062 4.37239 4.65832 4.26228C4.40191 4.03638 4.01152 4.05867 3.78248 4.31228C2.90974 5.28244 2.42731 6.5415 2.42832 7.84645V11.7431C2.43199 14.6692 4.8031 17.0403 7.72915 17.0439C7.93724 17.0448 8.14517 17.0323 8.35165 17.0064C8.42031 16.9975 8.47991 16.9547 8.51041 16.8925C8.54091 16.8304 8.53824 16.7571 8.50332 16.6973C8.35936 16.4532 8.23641 16.1972 8.13582 15.9323C8.10415 15.8477 8.02101 15.7936 7.93082 15.7989C7.86332 15.7989 7.79498 15.8056 7.72915 15.8056C5.4872 15.8015 3.67078 13.9851 3.66665 11.7431V7.84645C3.66784 6.8475 4.03518 5.88364 4.69915 5.13728Z" fill="#A4B1CD"/>
<path d="M6.01159 11.7432C6.01159 11.4012 5.73438 11.124 5.39242 11.124C5.05047 11.124 4.77326 11.4012 4.77326 11.7432C4.77237 12.5274 5.0835 13.2797 5.63802 13.8343C6.19254 14.3888 6.94488 14.6999 7.72909 14.699C7.74775 14.6991 7.76548 14.6909 7.77742 14.6765C7.78938 14.6628 7.79458 14.6445 7.79159 14.6265C7.74957 14.3555 7.72867 14.0816 7.72909 13.8074C7.72909 13.7415 7.72909 13.6757 7.72909 13.6099C7.73581 13.5248 7.67248 13.4503 7.58742 13.4432C6.69942 13.3737 6.01365 12.6339 6.01159 11.7432Z" fill="#A4B1CD"/>
<path d="M9.56575 9.41646C9.6385 9.45049 9.72439 9.4391 9.78575 9.38729C10.054 9.161 10.3421 8.95935 10.6466 8.78479C10.6704 8.77065 10.685 8.74499 10.6849 8.71729V7.84646C10.6849 6.79044 10.1215 5.81464 9.207 5.28663C8.29247 4.75862 7.16571 4.75862 6.25117 5.28663C5.33663 5.81464 4.77325 6.79044 4.77325 7.84646V9.01312C4.77325 9.35508 5.05046 9.63229 5.39242 9.63229C5.73438 9.63229 6.01159 9.35508 6.01159 9.01312V7.84646C6.01159 6.89791 6.78054 6.12896 7.72909 6.12896C8.67764 6.12896 9.44659 6.89791 9.44659 7.84646V9.22896C9.44648 9.30931 9.49296 9.38244 9.56575 9.41646Z" fill="#A4B1CD"/>
<path d="M7.98079 11.9165C8.0341 11.8929 8.07517 11.8482 8.09412 11.7931C8.15692 11.6054 8.23438 11.4229 8.32579 11.2473C8.34066 11.2175 8.34836 11.1847 8.34829 11.1515V9.00979C8.34829 8.66784 8.07108 8.39062 7.72912 8.39062C7.38717 8.39062 7.10995 8.66784 7.10995 9.00979V11.3556C7.11267 11.6964 7.3883 11.9721 7.72912 11.9748C7.81611 11.9727 7.90176 11.9529 7.98079 11.9165Z" fill="#A4B1CD"/>
<path fill-rule="evenodd" clip-rule="evenodd" d="M17.5167 16.1494L19.6059 18.2386V18.2378C20.0088 18.6407 20.0088 19.294 19.6059 19.6969C19.2029 20.0999 18.5496 20.0999 18.1467 19.6969L16.0575 17.6078C15.9909 17.542 15.8887 17.5287 15.8075 17.5753C15.1168 17.9774 14.3318 18.1894 13.5325 18.1894C11.6857 18.1894 10.0208 17.0769 9.31416 15.3707C8.6075 13.6644 8.99829 11.7005 10.3043 10.3948C11.6103 9.089 13.5743 8.69858 15.2804 9.40554C16.9865 10.1125 18.0987 11.7776 18.0984 13.6244C18.0982 14.4237 17.8863 15.2086 17.4842 15.8994C17.4371 15.9805 17.4504 16.0831 17.5167 16.1494ZM10.6158 13.6219C10.6158 15.2328 11.9216 16.5386 13.5325 16.5386C15.1433 16.5386 16.4491 15.2328 16.4491 13.6219C16.4491 12.0111 15.1433 10.7053 13.5325 10.7053C11.9216 10.7053 10.6158 12.0111 10.6158 13.6219Z" fill="#A4B1CD"/>
</svg>
