<svg width="20" height="20" viewBox="0 0 20 20" fill="none" xmlns="http://www.w3.org/2000/svg">
<path d="M9.17579 16.4774V18.1332C9.17579 18.2483 9.08252 18.3416 8.96746 18.3416H4.64496C4.34441 18.332 4.06251 18.4869 3.90941 18.7457C3.75631 19.0045 3.75631 19.3261 3.90941 19.5849C4.06251 19.8437 4.34441 19.9986 4.64496 19.9891H15.355C15.6555 19.9986 15.9374 19.8437 16.0905 19.5849C16.2436 19.3261 16.2436 19.0045 16.0905 18.7457C15.9374 18.4869 15.6555 18.332 15.355 18.3416H11.0325C10.9174 18.3416 10.8241 18.2483 10.8241 18.1332V16.4782C10.8256 16.034 10.47 15.671 10.0258 15.6632H10.0091C9.79022 15.6592 9.57884 15.7431 9.42224 15.8961C9.26563 16.0491 9.17687 16.2585 9.17579 16.4774Z" fill="#A4B1CD"/>
<path d="M17.4166 19.1664C17.4166 19.3849 17.5035 19.5944 17.658 19.7489C17.8126 19.9033 18.0223 19.9899 18.2408 19.9897H19.0649C19.3655 19.9993 19.6474 19.8444 19.8005 19.5856C19.9536 19.3268 19.9536 19.0051 19.8005 18.7463C19.6474 18.4875 19.3655 18.3327 19.0649 18.3422H18.2408C18.0222 18.3422 17.8125 18.429 17.658 18.5836C17.5034 18.7382 17.4166 18.9478 17.4166 19.1664H17.4166Z" fill="#A4B1CD"/>
<path d="M0.937498 19.9892H1.76166C2.06221 19.9988 2.34411 19.8439 2.49721 19.5851C2.65031 19.3263 2.65031 19.0047 2.49721 18.7459C2.34411 18.487 2.06221 18.3322 1.76166 18.3417H0.937498C0.636953 18.3322 0.355054 18.487 0.201953 18.7459C0.0488526 19.0047 0.0488526 19.3263 0.201953 19.5851C0.355054 19.8439 0.636953 19.9988 0.937498 19.9892Z" fill="#A4B1CD"/>
<path d="M18.0326 9.72393C18.0331 9.64346 17.987 9.56996 17.9144 9.53533C17.8417 9.5007 17.7556 9.5112 17.6934 9.56227C16.0959 10.8598 13.0909 11.5448 10.2059 11.5448C7.32091 11.5448 4.31591 10.8598 2.71924 9.56227C2.65688 9.51141 2.57079 9.50101 2.49811 9.53557C2.42543 9.57013 2.37916 9.64346 2.37924 9.72393V11.5448C2.37924 13.3656 5.88424 14.8406 10.2059 14.8406C14.5276 14.8406 18.0326 13.3656 18.0326 11.5448V9.72393Z" fill="#A4B1CD"/>
<path d="M10.2067 7.42572C7.32174 7.42572 4.31591 6.74073 2.71924 5.44239C2.65688 5.39153 2.57079 5.38114 2.49811 5.4157C2.42543 5.45025 2.37916 5.52358 2.37924 5.60406V7.42572C2.37924 9.24656 5.88424 10.7216 10.2059 10.7216C14.5276 10.7216 18.0326 9.24656 18.0326 7.42572V5.60489C18.0328 5.52457 17.9866 5.45136 17.914 5.41694C17.8414 5.38253 17.7555 5.39309 17.6934 5.44406C16.0959 6.74073 13.0909 7.42572 10.2067 7.42572Z" fill="#A4B1CD"/>
<path d="M10.2067 6.60241C14.5293 6.60241 18.0334 5.12681 18.0334 3.30658C18.0334 1.48634 14.5293 0.0107422 10.2067 0.0107422C5.88418 0.0107422 2.38007 1.48634 2.38007 3.30658C2.38007 5.12681 5.88418 6.60241 10.2067 6.60241Z" fill="#A4B1CD"/>
</svg>
