<svg width="20" height="20" viewBox="0 0 20 20" fill="none" xmlns="http://www.w3.org/2000/svg">
<path d="M2.02917 9.1665H0.833333C0.373096 9.1665 0 9.5396 0 9.99984C0 10.4601 0.373096 10.8332 0.833333 10.8332H2.02917C2.4894 10.8332 2.8625 10.4601 2.8625 9.99984C2.8625 9.5396 2.4894 9.1665 2.02917 9.1665Z" fill="#A4B1CD"/>
<path d="M2.02917 13.3335H0.833333C0.373096 13.3335 0 13.7066 0 14.1668C0 14.6271 0.373096 15.0002 0.833333 15.0002H2.02917C2.4894 15.0002 2.8625 14.6271 2.8625 14.1668C2.8625 13.7066 2.4894 13.3335 2.02917 13.3335Z" fill="#A4B1CD"/>
<path d="M2.02917 5.4165H0.833333C0.373096 5.4165 0 5.7896 0 6.24984C0 6.71007 0.373096 7.08317 0.833333 7.08317H2.02917C2.4894 7.08317 2.8625 6.71007 2.8625 6.24984C2.8625 5.7896 2.4894 5.4165 2.02917 5.4165Z" fill="#A4B1CD"/>
<path d="M19.1666 9.1665H17.9708C17.5105 9.1665 17.1374 9.5396 17.1374 9.99984C17.1374 10.4601 17.5105 10.8332 17.9708 10.8332H19.1666C19.6268 10.8332 19.9999 10.4601 19.9999 9.99984C19.9999 9.5396 19.6268 9.1665 19.1666 9.1665Z" fill="#A4B1CD"/>
<path d="M17.9708 7.08317H19.1666C19.6268 7.08317 19.9999 6.71007 19.9999 6.24984C19.9999 5.7896 19.6268 5.4165 19.1666 5.4165H17.9708C17.5105 5.4165 17.1374 5.7896 17.1374 6.24984C17.1374 6.71007 17.5105 7.08317 17.9708 7.08317Z" fill="#A4B1CD"/>
<path d="M19.1666 13.3335H17.9708C17.5105 13.3335 17.1374 13.7066 17.1374 14.1668C17.1374 14.6271 17.5105 15.0002 17.9708 15.0002H19.1666C19.6268 15.0002 19.9999 14.6271 19.9999 14.1668C19.9999 13.7066 19.6268 13.3335 19.1666 13.3335Z" fill="#A4B1CD"/>
<path d="M9.99999 2.8625C10.4602 2.8625 10.8333 2.4894 10.8333 2.02917V0.833333C10.8333 0.373096 10.4602 0 9.99999 0C9.53975 0 9.16666 0.373096 9.16666 0.833333V2.02917C9.16666 2.4894 9.53975 2.8625 9.99999 2.8625Z" fill="#A4B1CD"/>
<path d="M6.24999 2.8625C6.71023 2.8625 7.08332 2.4894 7.08332 2.02917V0.833333C7.08332 0.373096 6.71023 0 6.24999 0C5.78975 0 5.41666 0.373096 5.41666 0.833333V2.02917C5.41666 2.4894 5.78975 2.8625 6.24999 2.8625Z" fill="#A4B1CD"/>
<path d="M13.75 2.8625C14.2102 2.8625 14.5833 2.4894 14.5833 2.02917V0.833333C14.5833 0.373096 14.2102 0 13.75 0C13.2898 0 12.9167 0.373096 12.9167 0.833333V2.02917C12.9167 2.4894 13.2898 2.8625 13.75 2.8625Z" fill="#A4B1CD"/>
<path d="M9.99999 17.1382C9.53975 17.1382 9.16666 17.5113 9.16666 17.9715V19.1665C9.16666 19.6268 9.53975 19.9998 9.99999 19.9998C10.4602 19.9998 10.8333 19.6268 10.8333 19.1665V17.9715C10.8333 17.5113 10.4602 17.1382 9.99999 17.1382Z" fill="#A4B1CD"/>
<path d="M13.75 17.1382C13.2898 17.1382 12.9167 17.5113 12.9167 17.9715V19.1665C12.9167 19.6268 13.2898 19.9998 13.75 19.9998C14.2102 19.9998 14.5833 19.6268 14.5833 19.1665V17.9715C14.5833 17.5113 14.2102 17.1382 13.75 17.1382Z" fill="#A4B1CD"/>
<path d="M6.24999 17.1382C5.78975 17.1382 5.41666 17.5113 5.41666 17.9715V19.1665C5.41666 19.6268 5.78975 19.9998 6.24999 19.9998C6.71023 19.9998 7.08332 19.6268 7.08332 19.1665V17.9715C7.08332 17.5113 6.71023 17.1382 6.24999 17.1382Z" fill="#A4B1CD"/>
<path fill-rule="evenodd" clip-rule="evenodd" d="M4.94417 3.75H15.0558C15.7153 3.75092 16.2495 4.28554 16.25 4.945V15.0558C16.2486 15.7148 15.7148 16.2486 15.0558 16.25H4.94417C4.28522 16.2486 3.75138 15.7148 3.75 15.0558V4.945C3.75046 4.28554 4.2847 3.75092 4.94417 3.75ZM12.9167 13.75C13.3769 13.75 13.75 13.3769 13.75 12.9167C13.75 12.4564 13.3769 12.0833 12.9167 12.0833H10.8333C10.3731 12.0833 10 12.4564 10 12.9167C10 13.3769 10.3731 13.75 10.8333 13.75H12.9167Z" fill="#A4B1CD"/>
</svg>