<svg width="20" height="20" viewBox="0 0 20 20" fill="none" xmlns="http://www.w3.org/2000/svg">
<path fill-rule="evenodd" clip-rule="evenodd" d="M19.5833 9.35651C19.3255 9.20765 19.0078 9.20765 18.75 9.35651L15.3258 11.3232C15.2612 11.3599 15.182 11.3596 15.1177 11.3224C15.0534 11.2852 15.0137 11.2166 15.0133 11.1423V10.0898C15.0131 9.79394 14.856 9.52035 14.6006 9.37102C14.3451 9.22169 14.0296 9.21902 13.7717 9.36401L10.3092 11.3132C10.2447 11.3494 10.1661 11.3494 10.1017 11.3132C10.0378 11.2751 9.99904 11.2059 10 11.1315V10.1257C10.0002 9.82 9.83297 9.53876 9.56435 9.39289C9.29572 9.24701 8.96879 9.25992 8.7125 9.42651L5.75 11.3532C5.69248 11.3908 5.62001 11.3974 5.55667 11.3707C5.4932 11.344 5.44681 11.288 5.4325 11.2207L4.0875 4.75651C4.00835 4.36876 3.66741 4.09016 3.27167 4.08984H1.97667C1.56128 4.08997 1.20941 4.39599 1.15167 4.80734L0.00833333 12.9215C0.00833333 12.9314 0.00629231 12.9558 0.00423046 12.9804C0.00212608 13.0056 0 13.031 0 13.0415V19.0915C0 19.5517 0.373096 19.9248 0.833333 19.9248H19.1667C19.6269 19.9248 20 19.5517 20 19.0915V10.0773C19.9997 9.77993 19.8409 9.50522 19.5833 9.35651ZM8.125 17.8415H6.04167C5.69649 17.8415 5.41667 17.5617 5.41667 17.2165C5.41667 16.8713 5.69649 16.5915 6.04167 16.5915H8.125C8.47018 16.5915 8.75 16.8713 8.75 17.2165C8.75 17.5617 8.47018 17.8415 8.125 17.8415ZM6.04167 14.9248H8.125C8.47018 14.9248 8.75 14.645 8.75 14.2998C8.75 13.9547 8.47018 13.6748 8.125 13.6748H6.04167C5.69649 13.6748 5.41667 13.9547 5.41667 14.2998C5.41667 14.645 5.69649 14.9248 6.04167 14.9248ZM12.7083 17.8415H10.625C10.2798 17.8415 10 17.5617 10 17.2165C10 16.8713 10.2798 16.5915 10.625 16.5915H12.7083C13.0535 16.5915 13.3333 16.8713 13.3333 17.2165C13.3333 17.5617 13.0535 17.8415 12.7083 17.8415ZM10.625 14.9248H12.7083C13.0535 14.9248 13.3333 14.645 13.3333 14.2998C13.3333 13.9547 13.0535 13.6748 12.7083 13.6748H10.625C10.2798 13.6748 10 13.9547 10 14.2998C10 14.645 10.2798 14.9248 10.625 14.9248ZM17.2917 17.8415H15.2083C14.8632 17.8415 14.5833 17.5617 14.5833 17.2165C14.5833 16.8713 14.8632 16.5915 15.2083 16.5915H17.2917C17.6368 16.5915 17.9167 16.8713 17.9167 17.2165C17.9167 17.5617 17.6368 17.8415 17.2917 17.8415ZM15.2083 14.9248H17.2917C17.6368 14.9248 17.9167 14.645 17.9167 14.2998C17.9167 13.9547 17.6368 13.6748 17.2917 13.6748H15.2083C14.8632 13.6748 14.5833 13.9547 14.5833 14.2998C14.5833 14.645 14.8632 14.9248 15.2083 14.9248Z" fill="#A4B1CD"/>
<path d="M2.30416 2.77823C4.27416 1.54906 6.39166 3.91656 9.06749 3.91656C10.4783 3.91656 12.0225 3.2499 13.6692 1.0049C13.7938 0.833064 13.7694 0.594967 13.6124 0.452064C13.4554 0.309161 13.216 0.307151 13.0567 0.447397C11.5067 1.8249 10.01 1.31156 8.27582 0.719064C6.24999 0.0257303 3.95082 -0.75927 1.74999 2.17573C1.63071 2.33632 1.64239 2.55901 1.77781 2.70625C1.91323 2.85348 2.13418 2.88369 2.30416 2.77823Z" fill="#A4B1CD"/>
</svg>
