<svg width="20" height="20" viewBox="0 0 20 20" fill="none" xmlns="http://www.w3.org/2000/svg">
<path d="M19.22 7.772C19.0754 7.61756 18.8318 7.59497 18.6592 7.72L17.4492 8.5944C17.4392 8.6016 17.4283 8.6096 17.4183 8.6184L17.3858 8.64L16.0058 9.6376C15.9566 9.67307 15.9291 9.7298 15.9325 9.7888C15.9379 9.86139 15.9354 9.93431 15.925 10.0064C15.8262 10.6619 15.1929 11.1165 14.51 11.0223C13.8272 10.9281 13.3529 10.3206 13.4504 9.66494C13.5479 9.0093 14.1803 8.55344 14.8633 8.6464C14.9386 8.65707 15.0126 8.67503 15.0842 8.7C15.1405 8.71907 15.2031 8.70976 15.2508 8.6752L15.8342 8.256C16.0183 8.12345 16.0556 7.87273 15.9175 7.696L15.2008 6.78C15.1236 6.68106 15.003 6.62199 14.8742 6.62C14.8307 6.61913 14.7873 6.61592 14.7442 6.6104C14.0614 6.51554 13.5878 5.9076 13.6859 5.25205C13.7841 4.59649 14.4169 4.14122 15.0998 4.23482C15.7828 4.32841 16.2577 4.93547 16.1608 5.5912C16.1541 5.63241 16.1452 5.67326 16.1342 5.7136C16.1001 5.83275 16.1253 5.96031 16.2025 6.0592L16.9167 6.976C17.0547 7.15273 17.3159 7.18855 17.5 7.056L18.5475 6.2992C18.6315 6.23829 18.6884 6.14911 18.7067 6.0496C18.735 5.90127 18.7495 5.7508 18.75 5.6C18.75 4.85739 18.4427 4.1452 17.8957 3.6201C17.3487 3.095 16.6069 2.8 15.8333 2.8C15.8314 2.80023 15.8295 2.79966 15.8281 2.79843C15.8266 2.79721 15.8258 2.79545 15.8258 2.7936C15.7109 1.22153 14.3499 0.00200556 12.7083 0C12.0091 0.000275656 11.3306 0.227832 10.7833 0.6456C10.6832 0.721582 10.6248 0.837449 10.625 0.96V8C10.625 8.33137 10.3452 8.6 10 8.6C9.65482 8.6 9.375 8.33137 9.375 8V0.96C9.37518 0.837449 9.31683 0.721582 9.21667 0.6456C8.66939 0.227832 7.99088 0.000275656 7.29167 0C5.65006 0.00200556 4.28914 1.22153 4.17417 2.7936C4.17418 2.79545 4.17337 2.79721 4.17193 2.79843C4.17049 2.79966 4.16857 2.80023 4.16667 2.8C2.55584 2.8 1.25 4.0536 1.25 5.6C1.25083 5.75056 1.26561 5.90075 1.29417 6.0488C1.31247 6.14831 1.36934 6.23749 1.45333 6.2984L2.5 7.056C2.68409 7.18855 2.94526 7.15273 3.08333 6.976L3.8 6.0624C3.87741 5.96332 3.90265 5.8354 3.86833 5.716C3.8572 5.67568 3.8483 5.63482 3.84167 5.5936C3.74484 4.93787 4.21969 4.33081 4.90265 4.23722C5.58561 4.14362 6.21842 4.59889 6.31658 5.25445C6.41473 5.91 5.9411 6.51794 5.25833 6.6128C5.21522 6.61832 5.17182 6.62153 5.12833 6.6224C4.99954 6.62439 4.87894 6.68346 4.80167 6.7824L4.08333 7.6984C3.94526 7.87513 3.98257 8.12585 4.16667 8.2584L4.75 8.6776C4.79775 8.71203 4.86012 8.72161 4.91667 8.7032C4.98806 8.67759 5.06209 8.65936 5.1375 8.6488C5.82055 8.55584 6.45291 9.0117 6.5504 9.66734C6.64789 10.323 6.17365 10.9305 5.49079 11.0247C4.80792 11.1189 4.17465 10.6643 4.07583 10.0088C4.06562 9.93697 4.06282 9.86435 4.0675 9.792C4.07166 9.73264 4.04402 9.67534 3.99417 9.64L2.59 8.6232L2.58167 8.6184C2.57236 8.61045 2.56262 8.60297 2.5525 8.596L1.34083 7.72C1.16816 7.59497 0.924554 7.61756 0.78 7.772C0.296247 8.26948 0.0188085 8.91968 0 9.6C0.0401971 10.545 0.552408 11.4135 1.37583 11.9328C1.54377 12.0432 1.60402 12.254 1.51833 12.4312C1.179 13.1343 1.16076 13.9415 1.468 14.658C1.77524 15.3746 2.38008 15.9356 3.13667 16.2056C3.29001 16.2615 3.46322 16.2258 3.57917 16.1144L4.975 14.7752C5.01862 14.7333 5.03713 14.6731 5.02417 14.6152C5.00851 14.5444 5.00041 14.4723 5 14.4C5 13.7373 5.55964 13.2 6.25 13.2C6.94036 13.2 7.5 13.7373 7.5 14.4C7.5 15.0627 6.94036 15.6 6.25 15.6C6.17405 15.5997 6.09834 15.5917 6.02417 15.576C5.96373 15.5639 5.90102 15.582 5.8575 15.624L4.50917 16.9192C4.38708 17.034 4.35041 17.2088 4.41667 17.36C4.7871 18.2253 5.55968 18.873 6.50264 19.109C7.4456 19.3449 8.44924 19.1416 9.2125 18.56C9.31297 18.4842 9.37164 18.3683 9.37167 18.2456V16.4C9.37167 16.0686 9.65149 15.8 9.99667 15.8C10.3418 15.8 10.6217 16.0686 10.6217 16.4V18.24C10.6217 18.3627 10.6804 18.4786 10.7808 18.5544C11.5435 19.1389 12.5484 19.3446 13.4931 19.1097C14.4378 18.8747 15.2122 18.2265 15.5833 17.36C15.6489 17.2103 15.6137 17.0374 15.4942 16.9224L14.1417 15.624C14.0979 15.5824 14.0354 15.5644 13.975 15.576C13.9008 15.5917 13.8251 15.5997 13.7492 15.6C13.0589 15.5996 12.4997 15.0621 12.5 14.3995C12.5003 13.7368 13.06 13.1999 13.7503 13.2C14.4405 13.2001 15 13.7374 15 14.4C14.9996 14.4726 14.9916 14.545 14.9758 14.616C14.9629 14.6739 14.9814 14.7341 15.025 14.776L16.4167 16.1152C16.5326 16.2266 16.7058 16.2623 16.8592 16.2064C17.6158 15.9364 18.2206 15.3754 18.5278 14.6588C18.8351 13.9423 18.8168 13.1351 18.4775 12.432C18.3918 12.2548 18.4521 12.044 18.62 11.9336C19.4452 11.415 19.9591 10.5461 20 9.6C19.9812 8.91968 19.7038 8.26948 19.22 7.772Z" fill="#A4B1CD"/>
</svg>
