<svg width="20" height="20" viewBox="0 0 20 20" fill="none" xmlns="http://www.w3.org/2000/svg">
<path fill-rule="evenodd" clip-rule="evenodd" d="M18.3692 0H1.63083C0.730855 0.00091776 0.00137775 0.730022 0 1.63V18.37C0.00137775 19.27 0.730855 19.9991 1.63083 20H18.3692C19.2691 19.9991 19.9986 19.27 20 18.37V1.63C19.9986 0.730022 19.2691 0.00091776 18.3692 0ZM12.2099 15.1558C12.3767 15.3233 12.435 15.5705 12.3604 15.7948C12.2859 16.0191 12.0913 16.1823 11.8574 16.2167L8.07576 16.7567C8.04816 16.7606 8.02031 16.7625 7.99243 16.7625C7.81074 16.7634 7.63768 16.6851 7.51831 16.5481C7.39894 16.4112 7.34508 16.229 7.37076 16.0492L7.91076 12.2683C7.94452 12.0346 8.10699 11.8398 8.33086 11.7645C8.55474 11.6893 8.80189 11.7466 8.96993 11.9125L9.85576 12.7983C9.93707 12.8794 10.0686 12.8794 10.1499 12.7983L12.9466 10C13.2736 9.6842 13.7933 9.68871 14.1148 10.0102C14.4362 10.3316 14.4407 10.8514 14.1249 11.1783L11.3258 13.9767C11.2866 14.0158 11.2646 14.0688 11.2646 14.1242C11.2646 14.1795 11.2866 14.2326 11.3258 14.2717L12.2099 15.1558ZM7.63928 4.20462C7.5647 4.4289 7.623 4.67605 7.78996 4.84334L8.67413 5.72751C8.71331 5.7666 8.73533 5.81967 8.73533 5.87501C8.73533 5.93036 8.71331 5.98343 8.67413 6.02251L5.87496 8.82168C5.55915 9.14866 5.56367 9.66842 5.88511 9.98986C6.20656 10.3113 6.72631 10.3158 7.05329 10L9.85246 7.20084C9.89155 7.16172 9.94465 7.13982 9.99996 7.14001C10.0549 7.14031 10.1076 7.16215 10.1466 7.20084L11.0358 8.08751C11.1532 8.2029 11.3112 8.26754 11.4758 8.26751C11.5434 8.26759 11.6107 8.2569 11.675 8.23584C11.8981 8.15971 12.0592 7.96436 12.0916 7.73084L12.6316 3.95084C12.6586 3.75605 12.5933 3.55981 12.455 3.42001C12.316 3.28026 12.1192 3.21444 11.9241 3.24251L8.14246 3.78334C7.90857 3.81733 7.71386 3.98035 7.63928 4.20462Z" fill="#A4B1CD"/>
</svg>
