<svg width="20" height="20" viewBox="0 0 20 20" fill="none" xmlns="http://www.w3.org/2000/svg">
<path d="M5.84921 12.8916C5.68681 13.0486 5.62176 13.281 5.67906 13.4995C5.73636 13.718 5.90709 13.8886 6.12564 13.9457C6.34418 14.0028 6.57653 13.9375 6.73337 13.775L8.8167 11.6916C8.93395 11.5746 8.99983 11.4157 8.99983 11.25C8.99983 11.0843 8.93395 10.9254 8.8167 10.8083L6.73337 8.72497C6.48825 8.48799 6.09843 8.4912 5.85723 8.73217C5.61603 8.97314 5.61246 9.36295 5.84921 9.6083L7.34337 11.1025C7.38256 11.1416 7.40458 11.1946 7.40458 11.25C7.40458 11.3053 7.38256 11.3584 7.34337 11.3975L5.84921 12.8916Z" fill="#A4B1CD"/>
<path d="M10.4584 13.125H13.7917C14.1369 13.125 14.4167 12.8452 14.4167 12.5C14.4167 12.1548 14.1369 11.875 13.7917 11.875H10.4584C10.1132 11.875 9.83337 12.1548 9.83337 12.5C9.83337 12.8452 10.1132 13.125 10.4584 13.125Z" fill="#A4B1CD"/>
<path fill-rule="evenodd" clip-rule="evenodd" d="M20 3.9585C20 2.57778 18.8807 1.4585 17.5 1.4585H2.5C1.11929 1.4585 0 2.57778 0 3.9585V16.0418C0 17.4225 1.11929 18.5418 2.5 18.5418H17.5C18.8807 18.5418 20 17.4225 20 16.0418V3.9585ZM8.045 3.12513C8.18659 2.86826 8.45669 2.70872 8.75 2.70872C9.04331 2.70872 9.31341 2.86826 9.455 3.12513C9.53517 3.24963 9.57957 3.39377 9.58333 3.5418C9.57957 3.68983 9.53517 3.83397 9.455 3.95847C9.31341 4.21534 9.04331 4.37488 8.75 4.37488C8.45669 4.37488 8.18659 4.21534 8.045 3.95847C7.96483 3.83397 7.92043 3.68983 7.91667 3.5418C7.92043 3.39377 7.96483 3.24963 8.045 3.12513ZM5.83333 2.70872C5.54002 2.70872 5.26992 2.86826 5.12833 3.12513C5.04816 3.24963 5.00377 3.39377 5 3.5418C5.00377 3.68983 5.04816 3.83397 5.12833 3.95847C5.26992 4.21534 5.54002 4.37488 5.83333 4.37488C6.12665 4.37488 6.39675 4.21534 6.53833 3.95847C6.61851 3.83397 6.6629 3.68983 6.66667 3.5418C6.6629 3.39377 6.61851 3.24963 6.53833 3.12513C6.39675 2.86826 6.12665 2.70872 5.83333 2.70872ZM2.16 3.20183C2.2935 2.90309 2.58946 2.71013 2.91667 2.7085C3.20912 2.71187 3.47768 2.87059 3.62167 3.12516C3.70184 3.24966 3.74623 3.3938 3.75 3.54183C3.74623 3.68986 3.70184 3.834 3.62167 3.9585C3.48008 4.21537 3.20998 4.37491 2.91667 4.37491C2.62335 4.37491 2.35325 4.21537 2.21167 3.9585C2.13149 3.834 2.0871 3.68986 2.08333 3.54183C2.0841 3.4243 2.11025 3.30832 2.16 3.20183ZM17.5 16.8752C17.9602 16.8752 18.3333 16.5021 18.3333 16.0418V5.8335C18.3333 5.71844 18.2401 5.62516 18.125 5.62516H1.875C1.75994 5.62516 1.66667 5.71844 1.66667 5.8335V16.0418C1.66667 16.5021 2.03976 16.8752 2.5 16.8752H17.5Z" fill="#A4B1CD"/>
</svg>
