<svg xmlns="http://www.w3.org/2000/svg" version="1.1" xmlns:xlink="http://www.w3.org/1999/xlink" xmlns:svgjs="http://svgjs.dev/svgjs" width="700" height="450"><svg xmlns:dc="http://purl.org/dc/elements/1.1/" xmlns:cc="http://creativecommons.org/ns#" xmlns:rdf="http://www.w3.org/1999/02/22-rdf-syntax-ns#" xmlns:svg="http://www.w3.org/2000/svg" xmlns="http://www.w3.org/2000/svg" xmlns:sodipodi="http://sodipodi.sourceforge.net/DTD/sodipodi-0.dtd" xmlns:inkscape="http://www.inkscape.org/namespaces/inkscape" width="700" height="450" id="SvgjsSvg1123" version="1.1" inkscape:version="0.48+devel r12044" sodipodi:docname="swordfisch_blanc.svg" inkscape:export-filename="/media/stuff/design/swordfischer/swordfischer_better.png" inkscape:export-xdpi="115.82" inkscape:export-ydpi="115.82">
  <defs id="SvgjsDefs1122"></defs>
  <sodipodi:namedview id="SvgjsSodipodi:namedview1121" pagecolor="#ffffff" bordercolor="#666666" borderopacity="1.0" inkscape:pageopacity="0.0" inkscape:pageshadow="2" inkscape:zoom="0.70710678" inkscape:cx="473.39017" inkscape:cy="257.9845" inkscape:document-units="px" inkscape:current-layer="use1536" showgrid="false" inkscape:snap-others="false" inkscape:snap-nodes="false" fit-margin-top="0" fit-margin-left="0" fit-margin-right="0" fit-margin-bottom="0" inkscape:window-width="1165" inkscape:window-height="773" inkscape:window-x="1973" inkscape:window-y="84" inkscape:window-maximized="0"></sodipodi:namedview>
  <metadata id="SvgjsMetadata1120">
    <rdf:rdf>
      <cc:work rdf:about="">
        <dc:format>image/svg+xml</dc:format>
        <dc:type rdf:resource="http://purl.org/dc/dcmitype/StillImage"></dc:type>
        <dc:title></dc:title>
      </cc:work>
    </rdf:rdf>
  </metadata>
  <g inkscape:label="Fishguy" inkscape:groupmode="layer" id="SvgjsG1119" transform="translate(768.70583,-275.36218)" style="display:inline">
    <g id="SvgjsG1118" transform="matrix(0.86494382,0,0,0.86494382,-681.12564,61.507736)">
      <path style="fill:#000000;fill-opacity:1;stroke:none" d="m -56.705826,277.71951 c 91.081954,27.65065 265.080796,68.00329 288.352276,58.58201 0,0 8.42606,-20.66055 19.56066,-22.38909 11.1346,-1.72854 20.85355,10.98529 20.85355,10.98529 l 25.23223,-4.18199 c 0,0 10.06366,-19.77548 23.70711,-22.35355 13.64345,-2.57807 28.34315,14.46447 28.34315,14.46447 0,0 73.41083,-7.77345 132.15685,2.03553 58.74602,9.80898 145,64 159,90 -58,-47 -113.35355,-52.52513 -113.35355,-52.52513 0,0 47,20 65,51 -31,-25 -67,-21 -67,-21 0,0 38.5,19 45.5,41 -9,-17 -49,-19.5 -49,-19.5 0,0 26.35355,11.52513 31.85355,31.02513 -10.5,-13 -35.5,-9.5 -35.5,-9.5 0,0 15,10 19.5,23.5 -10,-10 -23,-6 -23,-6 7.5,8.5 16,26.5 16,26.5 108,42 131.5,106 131.5,106 -76,-69 -124,-72 -124,-72 9,20 4.49479,72.7593 -11,99 -15.49479,26.2407 -38.84082,27.48927 -68,48 -29.15918,20.51073 -23,74 -107,75 58,-12 48.49084,-50.23194 65.98708,-73.44576 -17.22463,-4.40515 -16.60152,-48.96239 -77.37796,-46.09807 58.94347,-8.67194 92.78173,24.88397 99.38048,28.25094 6.59875,3.36696 24.13374,6.34386 25.41421,-21.11092 1.28047,-27.45477 -27.15453,-89.7708 -71.40381,-92.59619 -44.24928,-2.82539 -89,83 -100,111 0,0 13,-79 47,-120 0,0 -51.18002,3.64306 -63,-8 -11.81998,-11.64306 -15.08875,-27.29661 -32,-38 -16.91125,-10.70339 -51,-17 -51,-17 -1,-16 73.89284,3.8104 86.35355,-13.52513 C 293.81426,417.50152 240.5456,387.73563 197,370.36218 153.4544,352.98873 -56.705826,277.71951 -56.705826,277.71951 Z" id="SvgjsPath1117" inkscape:connector-curvature="0" sodipodi:nodetypes="cszcczczccccccccccccczzccczzzcczzczzc"></path>
      <path sodipodi:nodetypes="czc" style="fill:#000000;fill-opacity:1;stroke:none" d="m 196.5,446.86218 c -2,-0.625 -8.31029,-17.84486 -3,-13.5 5.31029,4.34486 10.75,10.5 10.75,10.5" id="SvgjsPath1116" inkscape:connector-curvature="0"></path>
      <path sodipodi:nodetypes="czc" style="fill:#000000;fill-opacity:1;stroke:none" d="m 207,444.86218 c -2.375,-1.375 -7.99126,-24.7739 -2.5,-18.5 5.49126,6.2739 18,19 18,19" id="SvgjsPath1115" inkscape:connector-curvature="0"></path>
      <path sodipodi:nodetypes="czc" style="fill:#000000;fill-opacity:1;stroke:none" d="m 228.5,444.36218 c 0,0 -2.38191,-26.67661 3,-19.5 5.38191,7.17661 17.5,21.5 17.5,21.5" id="SvgjsPath1114" inkscape:connector-curvature="0"></path>
      <path sodipodi:nodetypes="czc" style="fill:#000000;fill-opacity:1;stroke:none" d="m 253.5,444.36218 c -1.375,-3.375 -0.77807,-25.91944 3,-19 3.77807,6.91944 11.5,19 11.5,19" id="SvgjsPath1113" inkscape:connector-curvature="0"></path>
      <path sodipodi:nodetypes="czc" style="fill:#000000;fill-opacity:1;stroke:none" d="m 148.08488,346.41749 c 0,0 11.6585,21.98945 15.2596,29.95238 3.6011,7.96293 7.56308,-21.86789 7.56308,-21.86789" id="SvgjsPath1112" inkscape:connector-curvature="0"></path>
      <path sodipodi:nodetypes="czc" style="fill:#000000;fill-opacity:1;stroke:none" d="m 206.40152,365.07516 c 0,0 8.56556,25.55463 10.83282,32.02968 2.26726,6.47505 9.69169,-14.96023 8.63103,-21.67774" id="SvgjsPath1111" inkscape:connector-curvature="0"></path>
      <path sodipodi:nodetypes="czc" style="fill:#000000;fill-opacity:1;stroke:none" d="m 233,383.86218 c 0,0 12.81927,24.91071 14.5,29 1.68073,4.08929 7.06066,-20.17157 6,-23" id="SvgjsPath1110" inkscape:connector-curvature="0"></path>
      <path sodipodi:nodetypes="czc" style="fill:#000000;fill-opacity:1;stroke:none" d="m 185.25471,357.16729 c 1.60123,2.22875 -2.88281,25.87075 -5.31462,17.89567 -2.43182,-7.97509 -8.61396,-24.71437 -8.61396,-24.71437" id="SvgjsPath1109" inkscape:connector-curvature="0"></path>
      <path sodipodi:nodetypes="czc" style="fill:#000000;fill-opacity:1;stroke:none" d="m 204.68711,362.22181 c 0.69964,3.57655 -4.22564,25.5845 -6.60115,18.06723 -2.37552,-7.51727 -7.6277,-20.85829 -7.6277,-20.85829" id="SvgjsPath1108" inkscape:connector-curvature="0"></path>
    </g>
  </g>
</svg><style>@media (prefers-color-scheme: light) { :root { filter: none; } }
@media (prefers-color-scheme: dark) { :root { filter: none; } }
</style></svg>